<svg width="500" height="300" viewBox="0 0 500 300" xmlns="http://www.w3.org/2000/svg">
  <defs>
    <style>
      @keyframes orbit1 { 0% { transform: rotate(0deg) translateX(80px) rotate(0deg); } 100% { transform: rotate(360deg) translateX(80px) rotate(-360deg); } }
      @keyframes orbit2 { 0% { transform: rotate(0deg) translateX(120px) rotate(0deg); } 100% { transform: rotate(-360deg) translateX(120px) rotate(360deg); } }
      @keyframes orbit3 { 0% { transform: rotate(0deg) translateX(150px) rotate(0deg); } 100% { transform: rotate(360deg) translateX(150px) rotate(-360deg); } }
      @keyframes pulse { 0%, 100% { r: 3; opacity: 1; } 50% { r: 5; opacity: 0.6; } }
      @keyframes glow { 0%, 100% { filter: drop-shadow(0 0 2px #00ff88); } 50% { filter: drop-shadow(0 0 8px #00f0ff); } }
      .particle { animation: pulse 2s ease-in-out infinite; }
      .center-core { animation: glow 1.5s ease-in-out infinite; }
      .ring1 { transform-origin: 250px 150px; animation: orbit1 20s linear infinite; }
      .ring2 { transform-origin: 250px 150px; animation: orbit2 30s linear infinite; }
      .ring3 { transform-origin: 250px 150px; animation: orbit3 25s linear infinite; }
    </style>
    
    <radialGradient id="glowGradient" cx="40%" cy="40%">
      <stop offset="0%" style="stop-color:#00ff88;stop-opacity:0.8" />
      <stop offset="100%" style="stop-color:#00f0ff;stop-opacity:0" />
    </radialGradient>
  </defs>
  
  <rect width="500" height="300" fill="#0a0a0f"/>
  
  <defs>
    <pattern id="grid" width="40" height="40" patternUnits="userSpaceOnUse">
      <path d="M 40 0 L 0 0 0 40" fill="none" stroke="#00f0ff" stroke-width="0.5" opacity="0.1"/>
    </pattern>
  </defs>
  <rect width="500" height="300" fill="url(#grid)" />
  
  <circle cx="250" cy="150" r="200" fill="url(#glowGradient)" opacity="0.3"/>
  
  <g class="ring1">
    <circle cx="250" cy="50" r="4" class="particle" fill="#00ff88"/>
    <circle cx="330" cy="90" r="4" class="particle" fill="#00ff88"/>
    <circle cx="350" cy="150" r="4" class="particle" fill="#00ff88"/>
    <circle cx="330" cy="210" r="4" class="particle" fill="#00ff88"/>
    <circle cx="250" cy="250" r="4" class="particle" fill="#00ff88"/>
    <circle cx="170" cy="210" r="4" class="particle" fill="#00ff88"/>
    <circle cx="150" cy="150" r="4" class="particle" fill="#00ff88"/>
    <circle cx="170" cy="90" r="4" class="particle" fill="#00ff88"/>
  </g>
  
  <g class="ring2">
    <circle cx="250" cy="30" r="3" class="particle" fill="#00f0ff"/>
    <circle cx="355" cy="75" r="3" class="particle" fill="#00f0ff"/>
    <circle cx="370" cy="150" r="3" class="particle" fill="#00f0ff"/>
    <circle cx="355" cy="225" r="3" class="particle" fill="#00f0ff"/>
    <circle cx="250" cy="270" r="3" class="particle" fill="#00f0ff"/>
    <circle cx="145" cy="225" r="3" class="particle" fill="#00f0ff"/>
    <circle cx="130" cy="150" r="3" class="particle" fill="#00f0ff"/>
    <circle cx="145" cy="75" r="3" class="particle" fill="#00f0ff"/>
  </g>
  
  <g class="ring3">
    <circle cx="250" cy="10" r="2.5" class="particle" fill="#a78bfa"/>
    <circle cx="375" cy="65" r="2.5" class="particle" fill="#a78bfa"/>
    <circle cx="390" cy="150" r="2.5" class="particle" fill="#a78bfa"/>
    <circle cx="375" cy="235" r="2.5" class="particle" fill="#a78bfa"/>
    <circle cx="250" cy="290" r="2.5" class="particle" fill="#a78bfa"/>
    <circle cx="125" cy="235" r="2.5" class="particle" fill="#a78bfa"/>
    <circle cx="110" cy="150" r="2.5" class="particle" fill="#a78bfa"/>
    <circle cx="125" cy="65" r="2.5" class="particle" fill="#a78bfa"/>
  </g>
  
  <circle cx="250" cy="150" r="6" class="center-core" fill="#ff3d7f" opacity="0.8"/>
</svg>
